# This file uses centimeters as units for non-parametric coordinates.

mtllib earth_ball.mtl
g default
v -3.060596 8.464211 3.060596
v 3.060596 8.464211 3.060596
v -3.060596 14.585401 3.060596
v 3.060596 14.585401 3.060596
v -3.060596 14.585401 -3.060596
v 3.060596 14.585401 -3.060596
v -3.060596 8.464211 -3.060596
v 3.060596 8.464211 -3.060596
v 3.865741 11.524807 3.865741
v 0.000000 15.390548 3.865741
v -3.865741 15.390548 0.000000
v 3.865741 15.390548 0.000000
v 0.000000 15.390548 -3.865741
v -3.865741 11.524807 -3.865741
v 3.865741 11.524807 -3.865741
v 0.000000 7.659064 -3.865741
v -3.865741 7.659064 0.000000
v 3.865741 7.659064 0.000000
v 0.000000 7.659064 3.865741
v -3.865741 11.524807 3.865741
v 0.000000 11.524807 5.279528
v 0.000000 16.804333 -0.000000
v 0.000000 11.524805 -5.279528
v 0.000000 6.245278 0.000000
v 5.279528 11.524807 -0.000000
v -5.279528 11.524807 0.000000
v 0.000000 9.417169 4.924776
v -2.107637 11.524807 4.924776
v 1.815490 7.925128 3.599677
v 3.599677 9.709316 3.599677
v 2.107637 11.524807 4.924776
v 0.000000 13.632443 4.924776
v 3.599677 13.340297 3.599677
v 1.815490 15.124484 3.599677
v -3.599677 13.340297 3.599677
v -1.815490 15.124484 3.599677
v -3.599677 15.124484 1.815490
v 0.000000 16.449581 2.107637
v -2.107637 16.449581 0.000000
v 3.599677 15.124484 1.815490
v 2.107637 16.449581 0.000000
v 0.000000 16.449581 -2.107637
v 3.599677 15.124484 -1.815490
v 1.815490 15.124484 -3.599677
v -3.599677 15.124484 -1.815490
v -1.815490 15.124484 -3.599677
v -3.599677 13.340297 -3.599677
v 0.000000 13.632443 -4.924776
v -2.107637 11.524807 -4.924776
v 3.599677 13.340297 -3.599677
v 2.107637 11.524807 -4.924776
v 0.000000 9.417169 -4.924776
v 3.599677 9.709316 -3.599677
v 1.815490 7.925128 -3.599677
v -3.599677 9.709316 -3.599677
v -1.815490 7.925128 -3.599677
v -3.599677 7.925128 -1.815490
v 0.000000 6.600030 -2.107637
v -2.107637 6.600030 0.000000
v 3.599677 7.925128 -1.815490
v 2.107637 6.600030 0.000000
v 0.000000 6.600030 2.107637
v 3.599677 7.925128 1.815490
v -3.599677 7.925128 1.815490
v 4.924776 9.417169 0.000000
v 4.924776 11.524807 2.107637
v 4.924776 11.524807 -2.107637
v 4.924776 13.632443 0.000000
v -4.924776 9.417169 0.000000
v -4.924776 11.524807 -2.107637
v -4.924776 11.524807 2.107637
v -4.924776 13.632443 0.000000
v -1.815490 7.925128 3.599677
v -3.599677 9.709316 3.599677
v -1.961564 9.563242 4.590894
v 1.961564 9.563242 4.590894
v 1.961564 13.486370 4.590894
v -1.961564 13.486370 4.590894
v -1.961564 16.115700 1.961564
v 1.961564 16.115700 1.961564
v 1.961564 16.115700 -1.961564
v -1.961564 16.115700 -1.961564
v -1.961564 13.486370 -4.590894
v 1.961564 13.486370 -4.590894
v 1.961564 9.563242 -4.590894
v -1.961564 9.563242 -4.590894
v -1.961564 6.933912 -1.961564
v 1.961564 6.933912 -1.961564
v 1.961564 6.933912 1.961564
v -1.961564 6.933912 1.961564
v 4.590894 9.563242 1.961564
v 4.590894 9.563242 -1.961564
v 4.590894 13.486370 -1.961564
v 4.590894 13.486370 1.961564
v -4.590894 9.563242 -1.961564
v -4.590894 9.563242 1.961564
v -4.590894 13.486370 1.961564
v -4.590894 13.486370 -1.961564
vt 0.976475 0.967391
vt 0.102767 0.667971
vt 0.393279 0.875329
vt 0.916398 0.985859
vt 0.189540 0.672167
vt 0.394524 0.792987
vt 0.482465 0.799114
vt 0.477451 0.884975
vt 0.836429 0.995978
vt 0.276566 0.657057
vt 0.403754 0.712595
vt 0.344309 0.632488
vt 0.411630 0.637497
vt 0.488180 0.640290
vt 0.486228 0.716210
vt 0.569538 0.717736
vt 0.571093 0.801059
vt 0.565903 0.640404
vt 0.635896 0.636560
vt 0.709040 0.654016
vt 0.799381 0.659443
vt 0.562537 0.884879
vt 0.757225 0.988749
vt 0.885819 0.645806
vt 0.949482 0.625873
vt 0.881555 0.562188
vt 0.679828 0.915862
vt 0.798397 0.570243
vt 0.796908 0.481739
vt 0.882761 0.477355
vt 0.667862 0.837235
vt 0.715745 0.569067
vt 0.638785 0.566349
vt 0.638201 0.488655
vt 0.714054 0.485846
vt 0.710301 0.403194
vt 0.791305 0.393615
vt 0.634929 0.411975
vt 0.629028 0.344826
vt 0.652358 0.277752
vt 0.666786 0.192179
vt 0.874297 0.392940
vt 0.673167 0.756803
vt 0.663289 0.106872
vt 0.651141 0.041963
vt 0.580091 0.101998
vt 0.748076 0.677259
vt 0.578839 0.184338
vt 0.490904 0.178205
vt 0.495925 0.092346
vt 0.828044 0.667140
vt 0.569602 0.264724
vt 0.561721 0.339820
vt 0.485182 0.337026
vt 0.487137 0.261107
vt 0.403835 0.259576
vt 0.402281 0.176254
vt 0.407470 0.336907
vt 0.337487 0.340746
vt 0.264365 0.323266
vt 0.174042 0.317802
vt 0.410843 0.092434
vt 0.907248 0.674369
vt 0.087606 0.331396
vt 0.023935 0.351299
vt 0.091833 0.415015
vt 0.984645 0.747256
vt 0.174991 0.406998
vt 0.176449 0.495503
vt 0.090594 0.499847
vt 0.996611 0.825883
vt 0.257635 0.408209
vt 0.334588 0.410953
vt 0.335159 0.488645
vt 0.259306 0.491430
vt 0.263037 0.574086
vt 0.182022 0.583629
vt 0.338419 0.565330
vt 0.099026 0.584266
vt 0.991306 0.906314
vt 0.412264 0.563814
vt 0.409259 0.488154
vt 0.486681 0.488658
vt 0.488013 0.566137
vt 0.409243 0.411843
vt 0.485349 0.411179
vt 0.561091 0.413500
vt 0.564102 0.489158
vt 0.564124 0.565469
vt 0.908619 0.750449
vt 0.915400 0.829185
vt 0.832237 0.831559
vt 0.829619 0.748403
vt 0.913796 0.908365
vt 0.834854 0.914715
vt 0.755854 0.912669
vt 0.749073 0.833933
vt 0.750677 0.754752
vt 0.016109 0.590731
vt 0.322229 0.935370
vt 0.037378 0.654596
vt 0.002543 0.504016
vt 0.008627 0.416620
vt 0.347767 0.023127
vt 0.966258 0.689244
vt 0.413697 0.008817
vt 0.501537 0.004314
vt 0.587917 0.019534
vt 0.935913 0.322582
vt 0.559693 0.968497
vt 0.625624 0.954179
vt 0.471847 0.973010
vt 0.385458 0.957796
vt 0.318738 0.266890
vt 0.312537 0.175120
vt 0.326775 0.087257
vt 0.696745 0.320233
vt 0.783751 0.305084
vt 0.870520 0.309238
vt 0.654637 0.710420
vt 0.660839 0.802187
vt 0.646608 0.890047
vt 0.320992 0.699573
vt 0.306573 0.785152
vt 0.310077 0.870460
vt 0.957209 0.386438
vt 0.687998 0.695726
vt 0.970811 0.473147
vt 0.964762 0.560546
vt 0.698215 0.973874
vn -0.577350 -0.577350 0.577350
vn -0.313220 -0.671526 0.671526
vn -0.329322 -0.329322 0.884926
vn -0.671526 -0.313219 0.671526
vn 0.000000 -0.707107 0.707107
vn 0.000000 -0.345160 0.938544
vn 0.000000 0.000000 1.000000
vn -0.345160 -0.000000 0.938544
vn -0.707107 -0.000000 0.707107
vn 0.313220 -0.671526 0.671526
vn 0.329322 -0.329322 0.884926
vn 0.577350 -0.577350 0.577350
vn 0.671526 -0.313220 0.671526
vn 0.707107 -0.000000 0.707107
vn 0.345160 -0.000000 0.938544
vn 0.329322 0.329322 0.884926
vn 0.000000 0.345160 0.938544
vn 0.671526 0.313220 0.671526
vn 0.577350 0.577350 0.577350
vn 0.313220 0.671526 0.671526
vn 0.000000 0.707107 0.707107
vn -0.329322 0.329322 0.884926
vn -0.671526 0.313220 0.671526
vn -0.313220 0.671526 0.671526
vn -0.577350 0.577350 0.577350
vn -0.329322 0.884926 0.329322
vn -0.671526 0.671526 0.313219
vn 0.000000 0.938544 0.345159
vn 0.000000 1.000000 -0.000000
vn -0.345159 0.938544 0.000000
vn -0.707107 0.707107 -0.000000
vn 0.329322 0.884926 0.329322
vn 0.671526 0.671526 0.313220
vn 0.707107 0.707107 0.000000
vn 0.345159 0.938544 0.000000
vn 0.329322 0.884926 -0.329322
vn 0.000000 0.938544 -0.345159
vn 0.671526 0.671526 -0.313219
vn 0.577350 0.577350 -0.577350
vn 0.313220 0.671526 -0.671526
vn 0.000000 0.707107 -0.707107
vn -0.329322 0.884926 -0.329322
vn -0.671526 0.671526 -0.313220
vn -0.313220 0.671526 -0.671526
vn -0.577350 0.577350 -0.577350
vn -0.329322 0.329322 -0.884926
vn -0.671526 0.313220 -0.671526
vn 0.000000 0.345160 -0.938544
vn 0.000000 -0.000000 -1.000000
vn -0.345160 0.000000 -0.938544
vn -0.707107 0.000000 -0.707107
vn 0.329322 0.329322 -0.884926
vn 0.671526 0.313220 -0.671526
vn 0.707107 0.000000 -0.707107
vn 0.345160 0.000000 -0.938544
vn 0.329322 -0.329322 -0.884926
vn -0.000000 -0.345160 -0.938544
vn 0.671526 -0.313220 -0.671526
vn 0.577350 -0.577350 -0.577350
vn 0.313220 -0.671526 -0.671526
vn -0.000000 -0.707107 -0.707107
vn -0.329322 -0.329322 -0.884926
vn -0.671526 -0.313219 -0.671526
vn -0.313220 -0.671526 -0.671526
vn -0.577350 -0.577350 -0.577350
vn -0.329322 -0.884926 -0.329322
vn -0.671526 -0.671526 -0.313220
vn -0.000000 -0.938544 -0.345160
vn 0.000000 -1.000000 0.000000
vn -0.345160 -0.938544 -0.000000
vn -0.707107 -0.707107 0.000000
vn 0.329322 -0.884926 -0.329322
vn 0.671526 -0.671526 -0.313220
vn 0.707107 -0.707107 -0.000000
vn 0.345160 -0.938544 -0.000000
vn 0.329322 -0.884926 0.329322
vn 0.000000 -0.938544 0.345160
vn 0.671526 -0.671526 0.313220
vn -0.329322 -0.884926 0.329322
vn -0.671526 -0.671526 0.313220
vn 0.884926 -0.329322 0.329322
vn 0.938544 -0.345160 0.000000
vn 1.000000 -0.000000 0.000000
vn 0.938544 -0.000000 0.345160
vn 0.884926 -0.329322 -0.329322
vn 0.938544 0.000000 -0.345160
vn 0.884926 0.329322 -0.329322
vn 0.938544 0.345160 0.000000
vn 0.884926 0.329322 0.329322
vn -0.884926 -0.329322 -0.329322
vn -0.938544 -0.345160 -0.000000
vn -1.000000 -0.000000 0.000000
vn -0.938544 0.000000 -0.345160
vn -0.884926 -0.329322 0.329322
vn -0.938544 0.000000 0.345160
vn -0.884926 0.329322 0.329322
vn -0.938544 0.345160 -0.000000
vn -0.884926 0.329322 -0.329322
s 1
g earth_ball
usemtl initialShadingGroup
f 1/100/1 73/125/2 75/3/3 74/113/4
f 73/125/2 19/124/5 27/6/6 75/3/3
f 75/3/3 27/6/6 21/7/7 28/8/8
f 74/113/4 75/3/3 28/8/8 20/112/9
f 19/124/5 29/123/10 76/11/11 27/6/6
f 29/123/10 2/12/12 30/13/13 76/11/11
f 76/11/11 30/13/13 9/14/14 31/15/15
f 27/6/6 76/11/11 31/15/15 21/7/7
f 21/7/7 31/15/15 77/16/16 32/17/17
f 31/15/15 9/14/14 33/18/18 77/16/16
f 77/16/16 33/18/18 4/19/19 34/120/20
f 32/17/17 77/16/16 34/120/20 10/121/21
f 20/112/9 28/8/8 78/22/22 35/110/23
f 28/8/8 21/7/7 32/17/17 78/22/22
f 78/22/22 32/17/17 10/121/21 36/122/24
f 35/110/23 78/22/22 36/122/24 3/111/25
f 3/25/25 36/24/24 79/26/26 37/129/27
f 36/24/24 10/21/21 38/28/28 79/26/26
f 79/26/26 38/28/28 22/29/29 39/30/30
f 37/129/27 79/26/26 39/30/30 11/128/31
f 10/21/21 34/20/20 80/32/32 38/28/28
f 34/20/20 4/19/19 40/33/33 80/32/32
f 80/32/32 40/33/33 12/34/34 41/35/35
f 38/28/28 80/32/32 41/35/35 22/29/29
f 22/29/29 41/35/35 81/36/36 42/37/37
f 41/35/35 12/34/34 43/38/38 81/36/36
f 81/36/36 43/38/38 6/39/39 44/117/40
f 42/37/37 81/36/36 44/117/40 13/118/41
f 11/128/31 39/30/30 82/42/42 45/126/43
f 39/30/30 22/29/29 42/37/37 82/42/42
f 82/42/42 42/37/37 13/118/41 46/119/44
f 45/126/43 82/42/42 46/119/44 5/109/45
f 5/45/45 46/44/44 83/46/46 47/108/47
f 46/44/44 13/41/41 48/48/48 83/46/46
f 83/46/46 48/48/48 23/49/49 49/50/50
f 47/108/47 83/46/46 49/50/50 14/107/51
f 13/41/41 44/40/40 84/52/52 48/48/48
f 44/40/40 6/39/39 50/53/53 84/52/52
f 84/52/52 50/53/53 15/54/54 51/55/55
f 48/48/48 84/52/52 51/55/55 23/49/49
f 23/49/49 51/55/55 85/56/56 52/57/57
f 51/55/55 15/54/54 53/58/58 85/56/56
f 85/56/56 53/58/58 8/59/59 54/114/60
f 52/57/57 85/56/56 54/114/60 16/115/61
f 14/107/51 49/50/50 86/62/62 55/106/63
f 49/50/50 23/49/49 52/57/57 86/62/62
f 86/62/62 52/57/57 16/115/61 56/116/64
f 55/106/63 86/62/62 56/116/64 7/104/65
f 7/65/65 56/64/64 87/66/66 57/103/67
f 56/64/64 16/61/61 58/68/68 87/66/66
f 87/66/66 58/68/68 24/69/69 59/70/70
f 57/103/67 87/66/66 59/70/70 17/102/71
f 16/61/61 54/60/60 88/72/72 58/68/68
f 54/60/60 8/59/59 60/73/73 88/72/72
f 88/72/72 60/73/73 18/74/74 61/75/75
f 58/68/68 88/72/72 61/75/75 24/69/69
f 24/69/69 61/75/75 89/76/76 62/77/77
f 61/75/75 18/74/74 63/78/78 89/76/76
f 89/76/76 63/78/78 2/12/12 29/10/10
f 62/77/77 89/76/76 29/10/10 19/5/5
f 17/102/71 59/70/70 90/79/79 64/99/80
f 59/70/70 24/69/69 62/77/77 90/79/79
f 90/79/79 62/77/77 19/5/5 73/2/2
f 64/99/80 90/79/79 73/2/2 1/101/1
f 2/12/12 63/78/78 91/81/81 30/13/13
f 63/78/78 18/74/74 65/82/82 91/81/81
f 91/81/81 65/82/82 25/83/83 66/84/84
f 30/13/13 91/81/81 66/84/84 9/14/14
f 18/74/74 60/73/73 92/85/85 65/82/82
f 60/73/73 8/59/59 53/58/58 92/85/85
f 92/85/85 53/58/58 15/54/54 67/86/86
f 65/82/82 92/85/85 67/86/86 25/83/83
f 25/83/83 67/86/86 93/87/87 68/88/88
f 67/86/86 15/54/54 50/53/53 93/87/87
f 93/87/87 50/53/53 6/39/39 43/38/38
f 68/88/88 93/87/87 43/38/38 12/34/34
f 9/14/14 66/84/84 94/89/89 33/18/18
f 66/84/84 25/83/83 68/88/88 94/89/89
f 94/89/89 68/88/88 12/34/34 40/33/33
f 33/18/18 94/89/89 40/33/33 4/19/19
f 7/105/65 57/67/67 95/90/90 55/63/63
f 57/67/67 17/71/71 69/91/91 95/90/90
f 95/90/90 69/91/91 26/92/92 70/93/93
f 55/63/63 95/90/90 70/93/93 14/51/51
f 17/71/71 64/80/80 96/94/94 69/91/91
f 64/80/80 1/1/1 74/4/4 96/94/94
f 96/94/94 74/4/4 20/9/9 71/95/95
f 69/91/91 96/94/94 71/95/95 26/92/92
f 26/92/92 71/95/95 97/96/96 72/97/97
f 71/95/95 20/9/9 35/23/23 97/96/96
f 97/96/96 35/23/23 3/130/25 37/27/27
f 72/97/97 97/96/96 37/27/27 11/31/31
f 14/51/51 70/93/93 98/98/98 47/47/47
f 70/93/93 26/92/92 72/97/97 98/98/98
f 98/98/98 72/97/97 11/31/31 45/43/43
f 47/47/47 98/98/98 45/43/43 5/127/45
